<svg width="24" height="28" viewBox="0 0 24 28" fill="none" xmlns="http://www.w3.org/2000/svg">
<path d="M23.0906 21.8205C22.6672 22.7987 22.166 23.6992 21.5852 24.5271C20.7937 25.6557 20.1455 26.4369 19.646 26.8707C18.8717 27.5828 18.0421 27.9475 17.1538 27.9682C16.516 27.9682 15.7469 27.7867 14.8516 27.4186C13.9534 27.0522 13.1279 26.8707 12.3732 26.8707C11.5816 26.8707 10.7326 27.0522 9.82457 27.4186C8.91512 27.7867 8.18248 27.9786 7.62232 27.9976C6.77042 28.0339 5.92129 27.6588 5.07371 26.8707C4.53274 26.3989 3.8561 25.59 3.04551 24.4441C2.17581 23.2205 1.46079 21.8015 0.900638 20.1838C0.300731 18.4364 0 16.7444 0 15.1062C0 13.2298 0.405468 11.6114 1.21762 10.2551C1.85589 9.16575 2.70502 8.30642 3.76778 7.67557C4.83054 7.04473 5.97884 6.72326 7.21547 6.70269C7.89212 6.70269 8.77945 6.91199 9.88213 7.32334C10.9817 7.73607 11.6877 7.94537 11.9973 7.94537C12.2287 7.94537 13.013 7.70063 14.3426 7.21272C15.6 6.76024 16.6612 6.57289 17.5305 6.64669C19.8863 6.83681 21.6561 7.76545 22.8331 9.43848C20.7262 10.715 19.6841 12.503 19.7048 14.7967C19.7238 16.5833 20.3719 18.07 21.6457 19.2505C22.223 19.7983 22.8677 20.2218 23.5849 20.5225C23.4294 20.9736 23.2652 21.4057 23.0906 21.8205ZM17.6878 0.560159C17.6878 1.96048 17.1762 3.26795 16.1565 4.47814C14.9259 5.91681 13.4375 6.74814 11.8234 6.61696C11.8028 6.44897 11.7909 6.27216 11.7909 6.08636C11.7909 4.74206 12.3761 3.30338 13.4154 2.12707C13.9342 1.53149 14.5941 1.03627 15.3943 0.641218C16.1928 0.252064 16.9481 0.0368539 17.6584 0C17.6792 0.187201 17.6878 0.374414 17.6878 0.560141V0.560159Z" fill="white"/>
</svg>
