<svg width="25" height="24" viewBox="0 0 25 24" fill="none" xmlns="http://www.w3.org/2000/svg">
<rect x="1.51538" y="1.5" width="21.2151" height="21" rx="10.5" fill="#C9CBCF"/>
<path d="M9.56081 7.26911C9.56081 7.97002 8.94705 8.53822 8.18995 8.53822C7.43285 8.53822 6.81909 7.97002 6.81909 7.26911C6.81909 6.5682 7.43285 6 8.18995 6C8.94705 6 9.56081 6.5682 9.56081 7.26911Z" fill="black"/>
<path d="M7.00656 9.47107H9.34991V16.5H7.00656V9.47107Z" fill="black"/>
<path d="M13.1227 9.47107H10.7793V16.5H13.1227C13.1227 16.5 13.1227 14.2872 13.1227 12.9036C13.1227 12.0732 13.4092 11.2392 14.5521 11.2392C15.8439 11.2392 15.8361 12.3259 15.8301 13.1678C15.8222 14.2683 15.841 15.3914 15.841 16.5H18.1843V12.7903C18.1645 10.4215 17.5409 9.33006 15.4895 9.33006C14.2712 9.33006 13.516 9.87754 13.1227 10.3729V9.47107Z" fill="black"/>
</svg>
