<svg width="37" height="37" viewBox="0 0 37 37" fill="none" xmlns="http://www.w3.org/2000/svg">
<mask id="mask0_6516_3636" style="mask-type:alpha" maskUnits="userSpaceOnUse" x="-4" y="-4" width="45" height="45">
<rect x="-3.69993" y="-3.7003" width="44.3996" height="44.3996" fill="#D9D9D9"/>
</mask>
<g mask="url(#mask0_6516_3636)">
<path d="M18.4998 36.9997C15.9407 36.9997 13.5357 36.5141 11.2849 35.5428C9.03409 34.5716 7.07619 33.2535 5.4112 31.5885C3.74622 29.9235 2.4281 27.9656 1.45686 25.7148C0.485621 23.464 0 21.059 0 18.4998C0 15.9407 0.485621 13.5357 1.45686 11.2849C2.4281 9.03409 3.74622 7.07619 5.4112 5.4112C7.07619 3.74622 9.03409 2.4281 11.2849 1.45686C13.5357 0.485621 15.9407 0 18.4998 0C21.059 0 23.464 0.485621 25.7148 1.45686C27.9656 2.4281 29.9235 3.74622 31.5885 5.4112C33.2535 7.07619 34.5716 9.03409 35.5428 11.2849C36.5141 13.5357 36.9997 15.9407 36.9997 18.4998C36.9997 19.3323 36.9534 20.1494 36.8609 20.9511C36.7684 21.7527 36.6143 22.539 36.3984 23.3098C35.9668 22.8165 35.4657 22.4002 34.8953 22.0611C34.3249 21.7219 33.7005 21.4906 33.0222 21.3673C33.1147 20.9048 33.1841 20.4346 33.2303 19.9567C33.2766 19.4788 33.2997 18.9932 33.2997 18.4998C33.2997 14.3682 31.866 10.8687 28.9985 8.00118C26.131 5.13371 22.6315 3.69997 18.4998 3.69997C14.3682 3.69997 10.8687 5.13371 8.00118 8.00118C5.13371 10.8687 3.69997 14.3682 3.69997 18.4998C3.69997 22.6315 5.13371 26.131 8.00118 28.9985C10.8687 31.866 14.3682 33.2997 18.4998 33.2997C20.0723 33.2997 21.5754 33.0685 23.0092 32.606C24.4429 32.1435 25.761 31.496 26.9635 30.6635C27.3335 31.1876 27.7883 31.6501 28.3279 32.051C28.8675 32.4518 29.4456 32.7601 30.0622 32.976C28.4897 34.2401 26.7246 35.2268 24.7667 35.9359C22.8088 36.6451 20.7198 36.9997 18.4998 36.9997ZM31.9122 29.5997C31.2647 29.5997 30.7174 29.3762 30.2704 28.9291C29.8233 28.482 29.5997 27.9348 29.5997 27.2873C29.5997 26.6398 29.8233 26.0925 30.2704 25.6454C30.7174 25.1983 31.2647 24.9748 31.9122 24.9748C32.5597 24.9748 33.107 25.1983 33.5541 25.6454C34.0012 26.0925 34.2247 26.6398 34.2247 27.2873C34.2247 27.9348 34.0012 28.482 33.5541 28.9291C33.107 29.3762 32.5597 29.5997 31.9122 29.5997ZM24.6048 27.1948L16.6499 19.2398V9.24992H20.3498V17.7598L27.1948 24.6048L24.6048 27.1948Z" fill="#2C3738"/>
</g>
</svg>
