<svg width="19" height="19" viewBox="0 0 19 19" fill="none" xmlns="http://www.w3.org/2000/svg">
<mask id="mask0_6516_3495" style="mask-type:alpha" maskUnits="userSpaceOnUse" x="-2" y="-2" width="23" height="23">
<rect x="-1.90004" y="-1.89966" width="22.7999" height="22.7999" fill="#D9D9D9"/>
</mask>
<g mask="url(#mask0_6516_3495)">
<path d="M9.49998 12.35C10.2916 12.35 10.9646 12.0729 11.5187 11.5187C12.0729 10.9646 12.35 10.2916 12.35 9.49998C12.35 8.70831 12.0729 8.0354 11.5187 7.48123C10.9646 6.92707 10.2916 6.64999 9.49998 6.64999C8.70831 6.64999 8.0354 6.92707 7.48123 7.48123C6.92707 8.0354 6.64999 8.70831 6.64999 9.49998C6.64999 10.2916 6.92707 10.9646 7.48123 11.5187C8.0354 12.0729 8.70831 12.35 9.49998 12.35ZM9.49998 19C8.18582 19 6.95082 18.7506 5.79499 18.2518C4.63916 17.7531 3.63374 17.0762 2.77874 16.2212C1.92375 15.3662 1.24687 14.3608 0.748123 13.205C0.249374 12.0491 0 10.8141 0 9.49998C0 8.18582 0.249374 6.95082 0.748123 5.79499C1.24687 4.63916 1.92375 3.63374 2.77874 2.77874C3.63374 1.92375 4.63916 1.24687 5.79499 0.748123C6.95082 0.249374 8.18582 0 9.49998 0C10.8141 0 12.0491 0.249374 13.205 0.748123C14.3608 1.24687 15.3662 1.92375 16.2212 2.77874C17.0762 3.63374 17.7531 4.63916 18.2518 5.79499C18.7506 6.95082 19 8.18582 19 9.49998C19 10.8141 18.7506 12.0491 18.2518 13.205C17.7531 14.3608 17.0762 15.3662 16.2212 16.2212C15.3662 17.0762 14.3608 17.7531 13.205 18.2518C12.0491 18.7506 10.8141 19 9.49998 19Z" fill="#D5D5D5"/>
</g>
</svg>
