<svg width="30" height="37" viewBox="0 0 30 37" fill="none" xmlns="http://www.w3.org/2000/svg">
<mask id="mask0_6516_3643" style="mask-type:alpha" maskUnits="userSpaceOnUse" x="-8" y="-4" width="45" height="45">
<rect x="-7.39985" y="-3.7003" width="44.3996" height="44.3996" fill="#D9D9D9"/>
</mask>
<g mask="url(#mask0_6516_3643)">
<path d="M12.0249 24.0498H17.5748L16.5111 18.0836C17.1278 17.7753 17.6134 17.3282 17.968 16.7424C18.3225 16.1565 18.4998 15.509 18.4998 14.7999C18.4998 13.7824 18.1375 12.9113 17.413 12.1868C16.6884 11.4622 15.8174 11.0999 14.7999 11.0999C13.7824 11.0999 12.9113 11.4622 12.1868 12.1868C11.4622 12.9113 11.0999 13.7824 11.0999 14.7999C11.0999 15.509 11.2772 16.1565 11.6318 16.7424C11.9864 17.3282 12.472 17.7753 13.0886 18.0836L12.0249 24.0498ZM14.7999 36.9997C10.5141 35.9205 6.97598 33.4616 4.18559 29.6229C1.3952 25.7841 0 21.5215 0 16.8349V5.54995L14.7999 0L29.5997 5.54995V16.8349C29.5997 21.5215 28.2045 25.7841 25.4141 29.6229C22.6238 33.4616 19.0857 35.9205 14.7999 36.9997ZM14.7999 33.1147C18.0065 32.0972 20.6582 30.0622 22.7548 27.0098C24.8514 23.9573 25.8998 20.5657 25.8998 16.8349V8.09368L14.7999 3.93122L3.69997 8.09368V16.8349C3.69997 20.5657 4.74829 23.9573 6.84494 27.0098C8.94159 30.0622 11.5932 32.0972 14.7999 33.1147Z" fill="#2C3738"/>
</g>
</svg>
