<svg width="25" height="24" viewBox="0 0 25 24" fill="none" xmlns="http://www.w3.org/2000/svg">
<path d="M1.70064 7.45583C1.79802 5.97175 3.00343 4.80867 4.50403 4.73508C6.677 4.62852 9.78281 4.5 12.1229 4.5C14.4631 4.5 17.5689 4.62852 19.7418 4.73508C21.2424 4.80867 22.4478 5.97175 22.5452 7.45583C22.6385 8.8777 22.7305 10.6272 22.7305 12C22.7305 13.3728 22.6385 15.1223 22.5452 16.5442C22.4478 18.0283 21.2424 19.1913 19.7418 19.2649C17.5689 19.3715 14.4631 19.5 12.1229 19.5C9.78281 19.5 6.67701 19.3715 4.50403 19.2649C3.00343 19.1913 1.79802 18.0283 1.70064 16.5442C1.60734 15.1223 1.51538 13.3728 1.51538 12C1.51538 10.6272 1.60734 8.87769 1.70064 7.45583Z" fill="#C9CBCF"/>
<path d="M9.84985 9V15L15.9113 12L9.84985 9Z" fill="black"/>
</svg>
