<svg width="37" height="37" viewBox="0 0 37 37" fill="none" xmlns="http://www.w3.org/2000/svg">
<mask id="mask0_6516_3629" style="mask-type:alpha" maskUnits="userSpaceOnUse" x="-4" y="-4" width="45" height="45">
<rect x="-3.67724" y="-3.67761" width="44.3755" height="44.3755" fill="#D9D9D9"/>
</mask>
<g mask="url(#mask0_6516_3629)">
<path d="M9.26524 33.302V12.917C9.26524 11.9 9.63504 11.0372 10.3746 10.3284C11.1142 9.61963 11.9925 9.26524 13.0094 9.26524H33.302C34.3189 9.26524 35.1895 9.62733 35.9137 10.3515C36.6379 11.0757 36.9999 11.9463 36.9999 12.9632V27.755L27.755 36.9999H12.9632C11.9463 36.9999 11.0757 36.6379 10.3515 35.9137C9.62733 35.1895 9.26524 34.3189 9.26524 33.302ZM0.0665633 7.87851C-0.118335 6.86157 0.0819714 5.94478 0.667482 5.12815C1.25299 4.31151 2.05422 3.81075 3.07116 3.62585L23.1326 0.0665633C24.1495 -0.118335 25.0663 0.0819714 25.883 0.667482C26.6996 1.25299 27.2003 2.05422 27.3852 3.07116L27.8475 5.56728H24.0571L23.7335 3.7183L3.7183 7.27759L5.56728 17.7243V30.621C5.07422 30.3436 4.65049 29.9738 4.29611 29.5116C3.94172 29.0493 3.7183 28.5255 3.62585 27.9399L0.0665633 7.87851ZM12.9632 12.9632V33.302H25.9061V25.9061H33.302V12.9632H12.9632Z" fill="#2C3738"/>
</g>
</svg>
